if (_typeface_js && _typeface_js.loadFace) _typeface_js.loadFace({"glyphs":{"S":{"x_min":68,"x_max":611,"ha":678,"o":"m 68 203 l 204 203 l 204 136 l 475 136 l 475 407 l 176 407 l 68 515 l 68 840 l 176 949 l 502 949 l 611 840 l 611 745 l 475 745 l 475 813 l 204 813 l 204 543 l 502 543 l 611 434 l 611 108 l 502 0 l 176 0 l 68 108 l 68 203 "},"K":{"x_min":67.1875,"x_max":800,"ha":868,"o":"m 67 0 l 67 136 l 135 136 l 135 813 l 67 813 l 67 949 l 338 949 l 338 813 l 271 813 l 271 542 l 541 813 l 474 813 l 474 949 l 800 949 l 800 813 l 732 813 l 433 515 l 732 136 l 800 136 l 800 0 l 498 0 l 498 136 l 566 136 l 338 420 l 271 352 l 271 136 l 338 136 l 338 0 l 67 0 "},"7":{"x_min":68,"x_max":610.203125,"ha":678,"o":"m 68 0 l 68 136 l 168 136 l 436 813 l 204 813 l 204 745 l 68 745 l 68 949 l 610 949 l 610 813 l 331 136 l 431 136 l 431 0 l 68 0 "},"d":{"x_min":68,"x_max":611,"ha":678,"o":"m 68 0 l 68 949 l 502 949 l 611 840 l 611 108 l 502 0 l 68 0 m 204 136 l 475 136 l 475 813 l 204 813 l 204 136 "},",":{"x_min":68,"x_max":204,"ha":271,"o":"m 68 0 l 68 136 l 204 136 l 204 0 l 136 -135 l 68 -135 l 136 0 l 68 0 "},"Y":{"x_min":67,"x_max":746,"ha":814,"o":"m 67 813 l 67 949 l 339 949 l 339 813 l 271 813 l 406 587 l 543 813 l 475 813 l 475 949 l 746 949 l 746 813 l 678 813 l 475 474 l 475 136 l 543 136 l 543 0 l 271 0 l 271 136 l 339 136 l 339 474 l 134 813 l 67 813 "},"E":{"x_min":67.1875,"x_max":679,"ha":746,"o":"m 67 0 l 67 136 l 135 136 l 135 813 l 67 813 l 67 949 l 679 949 l 679 745 l 543 745 l 543 813 l 271 813 l 271 543 l 407 543 l 407 610 l 543 610 l 543 339 l 407 339 l 407 407 l 271 407 l 271 136 l 543 136 l 543 203 l 679 203 l 679 0 l 67 0 "},"y":{"x_min":67.828125,"x_max":746.171875,"ha":814,"o":"m 67 949 l 203 949 l 407 593 l 610 949 l 746 949 l 475 474 l 475 0 l 339 0 l 339 474 l 67 949 "},"\"":{"x_min":68,"x_max":407,"ha":475,"o":"m 271 813 l 271 949 l 407 949 l 407 813 l 339 677 l 271 677 l 339 813 l 271 813 m 68 813 l 68 949 l 204 949 l 204 813 l 136 677 l 68 677 l 136 813 l 68 813 "},"g":{"x_min":68,"x_max":611,"ha":678,"o":"m 176 0 l 68 108 l 68 840 l 176 949 l 502 949 l 611 840 l 611 678 l 475 678 l 475 813 l 204 813 l 204 136 l 475 136 l 475 407 l 339 407 l 339 543 l 611 543 l 611 108 l 502 0 l 176 0 "},"e":{"x_min":68,"x_max":610.203125,"ha":678,"o":"m 68 0 l 68 949 l 610 949 l 610 813 l 204 813 l 204 543 l 474 543 l 474 407 l 204 407 l 204 136 l 610 136 l 610 0 l 68 0 "},"J":{"x_min":68,"x_max":678.8125,"ha":746,"o":"m 204 271 l 204 136 l 475 136 l 475 813 l 407 813 l 407 949 l 678 949 l 678 813 l 611 813 l 611 108 l 502 0 l 176 0 l 68 108 l 68 271 l 204 271 "},"q":{"x_min":68,"x_max":611,"ha":678,"o":"m 176 0 l 68 108 l 68 840 l 176 949 l 502 949 l 611 840 l 611 108 l 502 0 l 407 0 l 407 -67 l 271 -67 l 271 0 l 176 0 m 204 136 l 271 136 l 271 203 l 407 203 l 407 136 l 475 136 l 475 813 l 204 813 l 204 136 "},"b":{"x_min":68,"x_max":611,"ha":678,"o":"m 68 0 l 68 949 l 502 949 l 611 840 l 611 515 l 570 475 l 611 434 l 611 108 l 502 0 l 68 0 m 204 543 l 475 543 l 475 813 l 204 813 l 204 543 m 204 136 l 475 136 l 475 407 l 204 407 l 204 136 "},"D":{"x_min":67.1875,"x_max":678,"ha":746,"o":"m 67 0 l 67 136 l 135 136 l 135 813 l 67 813 l 67 949 l 569 949 l 678 840 l 678 108 l 569 0 l 67 0 m 271 136 l 542 136 l 542 813 l 271 813 l 271 136 "},"z":{"x_min":68,"x_max":611,"ha":678,"o":"m 68 813 l 68 949 l 611 949 l 611 813 l 244 136 l 611 136 l 611 0 l 68 0 l 68 136 l 434 813 l 68 813 "},"w":{"x_min":68,"x_max":1018,"ha":1085,"o":"m 68 949 l 203 949 l 339 271 l 475 813 l 610 813 l 746 271 l 882 949 l 1018 949 l 814 0 l 678 0 l 543 542 l 407 0 l 271 0 l 68 949 "},"$":{"x_min":68,"x_max":611,"ha":678,"o":"m 271 0 l 271 135 l 176 135 l 68 243 l 68 339 l 204 339 l 204 271 l 475 271 l 475 407 l 176 407 l 68 515 l 68 705 l 176 814 l 271 814 l 271 949 l 407 949 l 407 814 l 502 814 l 611 705 l 611 610 l 475 610 l 475 678 l 204 678 l 204 543 l 502 543 l 611 434 l 611 243 l 502 135 l 407 135 l 407 0 l 271 0 "},"-":{"x_min":68,"x_max":611,"ha":678,"o":"m 68 407 l 68 543 l 611 543 l 611 407 l 68 407 "},"Q":{"x_min":68,"x_max":611,"ha":678,"o":"m 176 0 l 68 108 l 68 840 l 176 949 l 502 949 l 611 840 l 611 108 l 502 0 l 407 0 l 407 -67 l 271 -67 l 271 0 l 176 0 m 204 136 l 271 136 l 271 203 l 407 203 l 407 136 l 475 136 l 475 813 l 204 813 l 204 136 "},"M":{"x_min":67.1875,"x_max":949.8125,"ha":1017,"o":"m 67 0 l 67 136 l 135 136 l 135 813 l 67 813 l 67 949 l 271 949 l 508 366 l 746 949 l 949 949 l 949 813 l 882 813 l 882 136 l 949 136 l 949 0 l 678 0 l 678 136 l 746 136 l 746 582 l 508 0 l 271 582 l 271 136 l 338 136 l 338 0 l 67 0 "},"C":{"x_min":68,"x_max":611,"ha":678,"o":"m 176 0 l 68 108 l 68 840 l 176 949 l 502 949 l 611 840 l 611 677 l 475 677 l 475 813 l 204 813 l 204 136 l 475 136 l 475 271 l 611 271 l 611 108 l 502 0 l 176 0 "},"L":{"x_min":67.1875,"x_max":678,"ha":746,"o":"m 67 0 l 67 136 l 135 136 l 135 813 l 67 813 l 67 949 l 338 949 l 338 813 l 271 813 l 271 136 l 542 136 l 542 203 l 678 203 l 678 0 l 67 0 "},"!":{"x_min":68,"x_max":204,"ha":271,"o":"m 68 0 l 68 136 l 204 136 l 204 0 l 68 0 m 102 271 l 68 610 l 68 949 l 204 949 l 204 610 l 170 271 l 102 271 "}," ":{"x_min":0,"x_max":0,"ha":543},"X":{"x_min":67,"x_max":746,"ha":814,"o":"m 67 813 l 67 949 l 339 949 l 339 813 l 271 813 l 406 587 l 542 813 l 474 813 l 474 949 l 746 949 l 746 813 l 678 813 l 474 474 l 678 136 l 746 136 l 746 0 l 474 0 l 474 136 l 542 136 l 406 361 l 271 136 l 339 136 l 339 0 l 67 0 l 67 136 l 135 136 l 339 474 l 135 813 l 67 813 "},"P":{"x_min":67.1875,"x_max":678,"ha":746,"o":"m 67 0 l 67 136 l 135 136 l 135 813 l 67 813 l 67 949 l 569 949 l 678 840 l 678 515 l 569 407 l 271 407 l 271 136 l 338 136 l 338 0 l 67 0 m 271 543 l 542 543 l 542 813 l 271 813 l 271 543 "},"#":{"x_min":67.359375,"x_max":746.640625,"ha":814,"o":"m 203 135 l 203 271 l 67 271 l 67 407 l 203 407 l 203 542 l 67 542 l 67 678 l 203 678 l 203 813 l 339 813 l 339 678 l 475 678 l 475 813 l 611 813 l 611 678 l 746 678 l 746 542 l 611 542 l 611 407 l 746 407 l 746 271 l 611 271 l 611 135 l 475 135 l 475 271 l 339 271 l 339 135 l 203 135 m 339 407 l 475 407 l 475 542 l 339 542 l 339 407 "},"+":{"x_min":67.796875,"x_max":610.203125,"ha":678,"o":"m 271 203 l 271 407 l 67 407 l 67 543 l 271 543 l 271 745 l 407 745 l 407 543 l 610 543 l 610 407 l 407 407 l 407 203 l 271 203 "},"'":{"x_min":68,"x_max":204,"ha":271,"o":"m 68 813 l 68 949 l 204 949 l 204 813 l 136 677 l 68 677 l 136 813 l 68 813 "},"T":{"x_min":68,"x_max":746,"ha":814,"o":"m 271 0 l 271 136 l 339 136 l 339 813 l 204 813 l 204 745 l 68 745 l 68 949 l 746 949 l 746 745 l 610 745 l 610 813 l 475 813 l 475 136 l 542 136 l 542 0 l 271 0 "},"a":{"x_min":67,"x_max":678,"ha":746,"o":"m 67 0 l 304 949 l 440 949 l 678 0 l 542 0 l 474 271 l 270 271 l 202 0 l 67 0 m 372 678 l 304 407 l 440 407 l 372 678 "},"=":{"x_min":68,"x_max":611,"ha":678,"o":"m 68 542 l 68 678 l 611 678 l 611 542 l 68 542 m 68 271 l 68 407 l 611 407 l 611 271 l 68 271 "},"N":{"x_min":67.1875,"x_max":813.8125,"ha":882,"o":"m 67 0 l 67 136 l 135 136 l 135 813 l 67 813 l 67 949 l 271 949 l 610 298 l 610 813 l 542 813 l 542 949 l 813 949 l 813 813 l 746 813 l 746 0 l 610 0 l 271 650 l 271 136 l 338 136 l 338 0 l 67 0 "},"2":{"x_min":68,"x_max":611,"ha":678,"o":"m 68 0 l 68 434 l 176 543 l 475 543 l 475 813 l 204 813 l 204 745 l 68 745 l 68 840 l 176 949 l 502 949 l 611 840 l 611 515 l 502 407 l 204 407 l 204 136 l 475 136 l 475 203 l 611 203 l 611 0 l 68 0 "},"j":{"x_min":68,"x_max":611,"ha":678,"o":"m 204 271 l 204 136 l 475 136 l 475 949 l 611 949 l 611 108 l 502 0 l 176 0 l 68 108 l 68 271 l 204 271 "},"Z":{"x_min":68,"x_max":746,"ha":814,"o":"m 68 745 l 68 949 l 746 949 l 746 813 l 244 136 l 610 136 l 610 203 l 746 203 l 746 0 l 68 0 l 68 136 l 569 813 l 204 813 l 204 745 l 68 745 "},"u":{"x_min":68,"x_max":611,"ha":678,"o":"m 68 949 l 204 949 l 204 136 l 475 136 l 475 949 l 611 949 l 611 108 l 502 0 l 176 0 l 68 108 l 68 949 "},"1":{"x_min":135.359375,"x_max":542.640625,"ha":678,"o":"m 135 0 l 135 136 l 271 136 l 271 713 l 170 713 l 170 813 l 271 949 l 407 949 l 407 136 l 542 136 l 542 0 l 135 0 "},"k":{"x_min":68,"x_max":746.171875,"ha":814,"o":"m 68 0 l 68 949 l 204 949 l 204 575 l 578 949 l 746 949 l 366 569 l 746 0 l 580 0 l 271 474 l 204 406 l 204 0 l 68 0 "},"t":{"x_min":67.796875,"x_max":610.203125,"ha":678,"o":"m 271 0 l 271 813 l 67 813 l 67 949 l 610 949 l 610 813 l 407 813 l 407 0 l 271 0 "},"W":{"x_min":67,"x_max":1018,"ha":1085,"o":"m 67 813 l 67 949 l 339 949 l 339 813 l 271 813 l 366 339 l 542 690 l 718 339 l 814 813 l 746 813 l 746 949 l 1018 949 l 1018 813 l 950 813 l 814 136 l 882 136 l 882 0 l 610 0 l 610 136 l 678 136 l 542 406 l 407 136 l 475 136 l 475 0 l 203 0 l 203 136 l 271 136 l 135 813 l 67 813 "},"v":{"x_min":67,"x_max":678,"ha":746,"o":"m 67 949 l 202 949 l 372 271 l 542 949 l 678 949 l 440 0 l 304 0 l 67 949 "},"s":{"x_min":68,"x_max":611,"ha":678,"o":"m 68 203 l 204 203 l 204 136 l 475 136 l 475 407 l 176 407 l 68 515 l 68 840 l 176 949 l 502 949 l 611 840 l 611 745 l 475 745 l 475 813 l 204 813 l 204 543 l 502 543 l 611 434 l 611 108 l 502 0 l 176 0 l 68 108 l 68 203 "},"B":{"x_min":67.1875,"x_max":678,"ha":746,"o":"m 67 0 l 67 136 l 135 136 l 135 813 l 67 813 l 67 949 l 569 949 l 678 840 l 678 515 l 637 475 l 678 434 l 678 108 l 569 0 l 67 0 m 271 543 l 542 543 l 542 813 l 271 813 l 271 543 m 271 136 l 542 136 l 542 407 l 271 407 l 271 136 "},"?":{"x_min":68,"x_max":611,"ha":678,"o":"m 68 678 l 68 840 l 176 949 l 502 949 l 611 840 l 611 515 l 502 407 l 407 407 l 407 271 l 271 271 l 271 434 l 379 543 l 475 543 l 475 813 l 204 813 l 204 678 l 68 678 m 271 136 l 407 136 l 407 0 l 271 0 l 271 136 "},"H":{"x_min":67.1875,"x_max":745.8125,"ha":814,"o":"m 67 0 l 67 136 l 135 136 l 135 813 l 67 813 l 67 949 l 338 949 l 338 813 l 271 813 l 271 543 l 542 543 l 542 813 l 474 813 l 474 949 l 745 949 l 745 813 l 678 813 l 678 136 l 745 136 l 745 0 l 474 0 l 474 136 l 542 136 l 542 407 l 271 407 l 271 136 l 338 136 l 338 0 l 67 0 "},"c":{"x_min":68,"x_max":611,"ha":678,"o":"m 176 0 l 68 108 l 68 840 l 176 949 l 502 949 l 611 840 l 611 677 l 475 677 l 475 813 l 204 813 l 204 136 l 475 136 l 475 271 l 611 271 l 611 108 l 502 0 l 176 0 "},"I":{"x_min":67.1875,"x_max":338.8125,"ha":407,"o":"m 67 0 l 67 136 l 135 136 l 135 813 l 67 813 l 67 949 l 338 949 l 338 813 l 271 813 l 271 136 l 338 136 l 338 0 l 67 0 "},"G":{"x_min":68,"x_max":611,"ha":678,"o":"m 176 0 l 68 108 l 68 840 l 176 949 l 502 949 l 611 840 l 611 678 l 475 678 l 475 813 l 204 813 l 204 136 l 475 136 l 475 407 l 339 407 l 339 543 l 611 543 l 611 108 l 502 0 l 176 0 "},"U":{"x_min":67.1875,"x_max":745.8125,"ha":814,"o":"m 67 949 l 338 949 l 338 813 l 271 813 l 271 136 l 542 136 l 542 813 l 474 813 l 474 949 l 745 949 l 745 813 l 678 813 l 678 108 l 569 0 l 243 0 l 135 108 l 135 813 l 67 813 l 67 949 "},"F":{"x_min":67.1875,"x_max":679,"ha":746,"o":"m 67 0 l 67 136 l 135 136 l 135 813 l 67 813 l 67 949 l 679 949 l 679 745 l 543 745 l 543 813 l 271 813 l 271 543 l 407 543 l 407 610 l 543 610 l 543 339 l 407 339 l 407 407 l 271 407 l 271 136 l 339 136 l 339 0 l 67 0 "},"r":{"x_min":68,"x_max":611,"ha":678,"o":"m 68 0 l 68 949 l 502 949 l 611 840 l 611 515 l 570 475 l 611 434 l 611 0 l 475 0 l 475 407 l 204 407 l 204 0 l 68 0 m 204 543 l 475 543 l 475 813 l 204 813 l 204 543 "},":":{"x_min":68,"x_max":204,"ha":271,"o":"m 68 0 l 68 136 l 204 136 l 204 0 l 68 0 m 68 407 l 68 543 l 204 543 l 204 407 l 68 407 "},"x":{"x_min":67,"x_max":746,"ha":814,"o":"m 67 949 l 202 949 l 406 593 l 610 949 l 746 949 l 474 474 l 746 0 l 610 0 l 406 356 l 202 0 l 67 0 l 338 474 l 67 949 "},"V":{"x_min":67,"x_max":746,"ha":814,"o":"m 67 949 l 339 949 l 339 813 l 271 813 l 406 271 l 542 813 l 474 813 l 474 949 l 746 949 l 746 813 l 678 813 l 474 0 l 339 0 l 135 813 l 67 813 l 67 949 "},"h":{"x_min":68,"x_max":611,"ha":678,"o":"m 68 0 l 68 949 l 204 949 l 204 543 l 475 543 l 475 949 l 611 949 l 611 0 l 475 0 l 475 407 l 204 407 l 204 0 l 68 0 "},"0":{"x_min":68,"x_max":611,"ha":678,"o":"m 176 0 l 68 108 l 68 840 l 176 949 l 502 949 l 611 840 l 611 108 l 502 0 l 176 0 m 204 136 l 475 136 l 475 813 l 204 813 l 204 136 "},".":{"x_min":68,"x_max":204,"ha":271,"o":"m 68 0 l 68 136 l 204 136 l 204 0 l 68 0 "},";":{"x_min":68,"x_max":204,"ha":271,"o":"m 68 407 l 68 543 l 204 543 l 204 407 l 68 407 m 68 0 l 68 136 l 204 136 l 204 0 l 136 -135 l 68 -135 l 136 0 l 68 0 "},"f":{"x_min":68,"x_max":610.203125,"ha":678,"o":"m 68 0 l 68 949 l 610 949 l 610 813 l 204 813 l 204 543 l 474 543 l 474 407 l 204 407 l 204 0 l 68 0 "},"i":{"x_min":68,"x_max":204,"ha":271,"o":"m 68 0 l 68 949 l 204 949 l 204 0 l 68 0 "},"A":{"x_min":67,"x_max":746,"ha":814,"o":"m 67 0 l 67 136 l 135 136 l 339 949 l 474 949 l 678 136 l 746 136 l 746 0 l 474 0 l 474 136 l 542 136 l 508 271 l 305 271 l 271 136 l 339 136 l 339 0 l 67 0 m 406 678 l 339 407 l 474 407 l 406 678 "},"6":{"x_min":68,"x_max":611,"ha":678,"o":"m 611 745 l 475 745 l 475 813 l 204 813 l 204 543 l 502 543 l 611 434 l 611 108 l 502 0 l 176 0 l 68 108 l 68 840 l 176 949 l 502 949 l 611 840 l 611 745 m 204 136 l 475 136 l 475 407 l 204 407 l 204 136 "},"O":{"x_min":68,"x_max":611,"ha":678,"o":"m 176 0 l 68 108 l 68 840 l 176 949 l 502 949 l 611 840 l 611 108 l 502 0 l 176 0 m 204 136 l 475 136 l 475 813 l 204 813 l 204 136 "},"n":{"x_min":68,"x_max":678,"ha":746,"o":"m 68 0 l 68 949 l 204 949 l 542 298 l 542 949 l 678 949 l 678 0 l 542 0 l 204 651 l 204 0 l 68 0 "},"3":{"x_min":68,"x_max":611,"ha":678,"o":"m 68 745 l 68 840 l 176 949 l 502 949 l 611 840 l 611 515 l 570 475 l 611 434 l 611 108 l 502 0 l 176 0 l 68 108 l 68 203 l 204 203 l 204 136 l 475 136 l 475 407 l 339 407 l 339 543 l 475 543 l 475 813 l 204 813 l 204 745 l 68 745 "},"9":{"x_min":68,"x_max":611,"ha":678,"o":"m 68 203 l 204 203 l 204 136 l 475 136 l 475 407 l 176 407 l 68 515 l 68 840 l 176 949 l 502 949 l 611 840 l 611 108 l 502 0 l 176 0 l 68 108 l 68 203 m 475 813 l 204 813 l 204 543 l 475 543 l 475 813 "},"m":{"x_min":68,"x_max":814,"ha":882,"o":"m 68 0 l 68 949 l 204 949 l 441 366 l 678 949 l 814 949 l 814 0 l 678 0 l 678 583 l 441 0 l 204 583 l 204 0 l 68 0 "},"8":{"x_min":68,"x_max":611,"ha":678,"o":"m 611 515 l 570 475 l 611 434 l 611 108 l 502 0 l 176 0 l 68 108 l 68 434 l 108 475 l 68 515 l 68 840 l 176 949 l 502 949 l 611 840 l 611 515 m 204 543 l 475 543 l 475 813 l 204 813 l 204 543 m 204 136 l 475 136 l 475 407 l 204 407 l 204 136 "},"l":{"x_min":68,"x_max":610.203125,"ha":678,"o":"m 68 0 l 68 949 l 204 949 l 204 136 l 610 136 l 610 0 l 68 0 "},"p":{"x_min":68,"x_max":611,"ha":678,"o":"m 68 0 l 68 949 l 502 949 l 611 840 l 611 515 l 502 407 l 204 407 l 204 0 l 68 0 m 204 543 l 475 543 l 475 813 l 204 813 l 204 543 "},"4":{"x_min":67.796875,"x_max":610.8125,"ha":678,"o":"m 339 0 l 339 136 l 407 136 l 407 271 l 67 271 l 67 407 l 407 949 l 543 949 l 543 407 l 610 407 l 610 271 l 543 271 l 543 136 l 610 136 l 610 0 l 339 0 m 238 407 l 407 407 l 407 678 l 238 407 "},"R":{"x_min":67.1875,"x_max":745.8125,"ha":814,"o":"m 67 0 l 67 136 l 135 136 l 135 813 l 67 813 l 67 949 l 569 949 l 678 840 l 678 515 l 637 475 l 678 434 l 678 136 l 745 136 l 745 0 l 474 0 l 474 136 l 542 136 l 542 407 l 271 407 l 271 136 l 338 136 l 338 0 l 67 0 m 271 543 l 542 543 l 542 813 l 271 813 l 271 543 "},"o":{"x_min":68,"x_max":611,"ha":678,"o":"m 176 0 l 68 108 l 68 840 l 176 949 l 502 949 l 611 840 l 611 108 l 502 0 l 176 0 m 204 136 l 475 136 l 475 813 l 204 813 l 204 136 "},"5":{"x_min":68,"x_max":611,"ha":678,"o":"m 68 949 l 611 949 l 611 813 l 204 813 l 204 543 l 502 543 l 611 434 l 611 108 l 502 0 l 176 0 l 68 108 l 68 203 l 204 203 l 204 136 l 475 136 l 475 407 l 176 407 l 68 515 l 68 949 "}}}
